<?xml version="1.0" encoding="utf-8"?>
<!-- Generator: Adobe Illustrator 16.0.0, SVG Export Plug-In . SVG Version: 6.00 Build 0)  -->
<!DOCTYPE svg PUBLIC "-//W3C//DTD SVG 1.1//EN" "http://www.w3.org/Graphics/SVG/1.1/DTD/svg11.dtd">
<svg version="1.1" id="Layer_1" xmlns="http://www.w3.org/2000/svg"  x="0px" y="0px"
	 width="1000px" height="1000px" viewBox="0 0 1000 1000" enable-background="new 0 0 1000 1000" xml:space="preserve">
<g>
	<path fill="#F04D4D" d="M651.957,172.107c9.778-4.669,23.295-2.635,25.873,7.496c5.008,19.679,9.97,45.85,16.143,65.278
		c12.668,40.033,25.672,78.947,40.334,118.337c24.892,66.872,43.785,106.956,80.799,176.877
		c11.914,22.506,25.08,38.25,27.098,52.487c1.801,11.495-10.577,16.122-18.217,21.484c-96.116,56.855-185.75,107.405-288.2,168.783
		c-55.563,30.067-45.385,25.354-100.818,51.879c-17.775,7.417-43.087,23.213-57.386,20.933c-8.088-1.29-17.099-12.083-23.012-21.157
		c-58.8-103.017-114.398-208.398-168.102-313.577c-11.445-20.928-14.838-26.77-24.309-47.913
		c-4.16-12.682,1.84-21.349,13.878-11.588c7.198,6.686,12.157,15.315,17.445,23.505c56.148,96.213,93.033,168.868,149.041,272.814
		c12.544,23.28,0,0,38.608,69.857c68.551-31.326,85.506-41.656,126.905-65.352c84.025-48.093,146.983-84.625,253.73-141.398
		c17.941-9.542,36.655-17.851,53.29-29.601c-11.527-18.221-22.123-33.424-32.728-52.219c-34.756-61.601-50.429-97.56-68.452-148.344
		c-20.688-58.291-44.046-125.45-57.951-188.848c0,0,5.392,16.38,0,0c-52.52,23.814-40.87,18.863-84.48,39.728
		c-11.313-7.419-18.148-6.536-29.313-14.175C576.731,207.527,616.061,189.248,651.957,172.107z"/>
	<path fill="#F04D4D" d="M415.812,298.823c35.112-20.898,75.878-41.507,135.883-76.813c10.436,6.544,9.94,9.5,22.909,18.049
		c-60.088,27.031-119.971,63.236-196.528,103.722C358.646,352.778,340.5,362,319.864,373c1.873-9.327,2.196-15.133,3.922-24.5
		C415.812,298.823,386.137,314.579,415.812,298.823z"/>
	<path fill="#F04D4D" d="M190.039,426.48c36.118-22.415,67.034-41.281,138.13-80.346c-0.771,8.447-3.511,16.279-4.282,24.728
		c-43.974,23.916-129.593,80.778-143.185,74.662C173.542,442.301,176.959,434.597,190.039,426.48z"/>
</g>
<g>
	<path fill="#020202" d="M625.805,503.432c5.109-5.933,14.487-12.14,19.723-7.847c8.624,7.073-13.113,29.529-23.579,41.648
		c-35.185,39.152-81.571,67.136-130.604,85.464c-24.02,6.721-49.069,11.864-74.117,10.763c-0.074-4.555-0.109-10.106-0.109-14.661
		c57.928-0.29,105.001-23.958,147.827-55.915C588.158,545.808,607.146,525.097,625.805,503.432z"/>
	<circle fill="#020202" cx="376.416" cy="528.702" r="14.739"/>
	<circle fill="#020202" cx="582.63" cy="410.716" r="14.738"/>
	<path fill="#020202" d="M417.119,618.799c0,0-10.355-0.842-11.848,4.755s5.256,9.759,11.958,9.906"/>
</g>
<path fill="#219CD3" d="M618.423,887.992c-38.051,1.173-76.134,2.965-114.149,5.104c-53.681,3.021-106.107,4.692-159.215,6.307
	c0,0-10.156-1.472-10.156,3.893c0,7.608,9.936,6.501,9.936,6.501c64.237,1.876,128.561,0.273,192.784-2.202
	c64.55-2.488,122.38-1.527,188.479-9.871c0.036-2.496-4.889-9.528-4.853-12.061C677.444,885.991,655.957,886.485,618.423,887.992z"
	/>
<path fill="#3AA5DC" d="M710.249,885.662c0,0,27.09-2.544,27.923,3.677c0.989,7.385-12.07,8.384-12.07,8.384"/>
<path fill="#4EB859" d="M368.886,90.674c6.339-3.532,20.172,1.788,26.894,8.032c48.971,43.276,95.62,89.859,151.354,124.689
	c11.206,7.668,21.967,15.733,33.313,23.175c11.42,9.329,38.22,18.763,32.101,30.779c-6.881,7.984-40.146-8.411-57.003-19.54
	c-11.531-7.602-23.288-14.874-35.003-22.22c-36.654-23.873-68.532-54.173-99.458-84.951c-12.487-13.001-26.671-25.379-41.068-36.288
	c-25.968,74.485-41.384,151.907-54.827,229.547c-1.726,9.367-3.452,18.77-5.325,28.097c-6.208,24.829-8.705,50.317-11.018,75.732
	c-0.882,11.166-1.943,22.351-4.667,29.377c-4.655,10.877-12.778,5.424-12.778-2.97c0.036-29.603,4.921-58.8,7.455-88.182
	c0.771-8.449,1.433-16.895,2.204-25.342c9.989-74.264,23.388-133.989,45.285-219.219C350.667,124.567,356.852,97.378,368.886,90.674
	z"/>
</svg>
